<svg xmlns="http://www.w3.org/2000/svg" xmlns:xlink="http://www.w3.org/1999/xlink" width="600" zoomAndPan="magnify" viewBox="0 0 450 449.999984" height="600" preserveAspectRatio="xMidYMid meet" version="1.0"><defs><clipPath id="9b5d87fdca"><path d="M 140.902344 155.238281 L 308.902344 155.238281 L 308.902344 366.738281 L 140.902344 366.738281 Z M 140.902344 155.238281 " clip-rule="nonzero"/></clipPath><clipPath id="14a4e3bfc0"><path d="M 135.804688 247.453125 L 314.304688 247.453125 L 314.304688 417.703125 L 135.804688 417.703125 Z M 135.804688 247.453125 " clip-rule="nonzero"/></clipPath><clipPath id="ae09bfd4f3"><path d="M 141 20.101562 L 308.902344 20.101562 L 308.902344 146 L 141 146 Z M 141 20.101562 " clip-rule="nonzero"/></clipPath></defs><path fill="#6e7bd1" d="M 111.441406 0 L 338.558594 0 C 340.382812 0 342.207031 0.0429688 344.027344 0.132812 C 345.851562 0.222656 347.667969 0.359375 349.484375 0.535156 C 351.296875 0.714844 353.109375 0.9375 354.910156 1.207031 C 356.714844 1.472656 358.511719 1.785156 360.300781 2.140625 C 362.089844 2.496094 363.867188 2.898438 365.636719 3.339844 C 367.40625 3.78125 369.164062 4.269531 370.910156 4.796875 C 372.65625 5.328125 374.386719 5.898438 376.101562 6.515625 C 377.820312 7.128906 379.519531 7.785156 381.207031 8.484375 C 382.890625 9.179688 384.558594 9.917969 386.207031 10.699219 C 387.855469 11.480469 389.484375 12.300781 391.09375 13.160156 C 392.699219 14.019531 394.289062 14.917969 395.851562 15.855469 C 397.414062 16.792969 398.957031 17.769531 400.472656 18.78125 C 401.988281 19.792969 403.480469 20.84375 404.945312 21.929688 C 406.410156 23.015625 407.847656 24.136719 409.257812 25.296875 C 410.667969 26.453125 412.046875 27.644531 413.398438 28.867188 C 414.75 30.09375 416.070312 31.351562 417.359375 32.640625 C 418.648438 33.929688 419.90625 35.25 421.132812 36.601562 C 422.355469 37.953125 423.546875 39.332031 424.703125 40.742188 C 425.859375 42.152344 426.984375 43.589844 428.070312 45.054688 C 429.15625 46.519531 430.207031 48.011719 431.21875 49.527344 C 432.230469 51.042969 433.207031 52.582031 434.144531 54.148438 C 435.082031 55.710938 435.980469 57.300781 436.839844 58.90625 C 437.699219 60.515625 438.519531 62.144531 439.300781 63.792969 C 440.082031 65.441406 440.820312 67.109375 441.515625 68.792969 C 442.214844 70.476562 442.871094 72.179688 443.484375 73.898438 C 444.101562 75.613281 444.671875 77.34375 445.203125 79.089844 C 445.730469 80.835938 446.21875 82.59375 446.660156 84.363281 C 447.101562 86.132812 447.503906 87.910156 447.859375 89.699219 C 448.214844 91.488281 448.527344 93.285156 448.792969 95.089844 C 449.0625 96.890625 449.285156 98.703125 449.464844 100.515625 C 449.640625 102.332031 449.777344 104.148438 449.867188 105.972656 C 449.957031 107.792969 450 109.617188 450 111.441406 L 450 338.558594 C 450 340.382812 449.957031 342.207031 449.867188 344.027344 C 449.777344 345.851562 449.640625 347.667969 449.464844 349.484375 C 449.285156 351.296875 449.0625 353.109375 448.792969 354.910156 C 448.527344 356.714844 448.214844 358.511719 447.859375 360.300781 C 447.503906 362.089844 447.101562 363.867188 446.660156 365.636719 C 446.21875 367.40625 445.730469 369.164062 445.203125 370.910156 C 444.671875 372.65625 444.101562 374.386719 443.484375 376.101562 C 442.871094 377.820312 442.214844 379.519531 441.515625 381.207031 C 440.820312 382.890625 440.082031 384.558594 439.300781 386.207031 C 438.519531 387.855469 437.699219 389.484375 436.839844 391.09375 C 435.980469 392.699219 435.082031 394.289062 434.144531 395.851562 C 433.207031 397.414062 432.230469 398.957031 431.21875 400.472656 C 430.207031 401.988281 429.15625 403.480469 428.070312 404.945312 C 426.984375 406.410156 425.859375 407.847656 424.703125 409.257812 C 423.546875 410.667969 422.355469 412.046875 421.132812 413.398438 C 419.90625 414.75 418.648438 416.070312 417.359375 417.359375 C 416.070312 418.648438 414.75 419.90625 413.398438 421.132812 C 412.046875 422.355469 410.667969 423.546875 409.257812 424.703125 C 407.847656 425.859375 406.410156 426.984375 404.945312 428.070312 C 403.480469 429.15625 401.988281 430.207031 400.472656 431.21875 C 398.957031 432.230469 397.414062 433.207031 395.851562 434.144531 C 394.289062 435.082031 392.699219 435.980469 391.09375 436.839844 C 389.484375 437.699219 387.855469 438.519531 386.207031 439.300781 C 384.558594 440.082031 382.890625 440.820312 381.207031 441.515625 C 379.519531 442.214844 377.820312 442.871094 376.101562 443.484375 C 374.386719 444.101562 372.65625 444.671875 370.910156 445.203125 C 369.164062 445.730469 367.40625 446.21875 365.636719 446.660156 C 363.867188 447.101562 362.089844 447.503906 360.300781 447.859375 C 358.511719 448.214844 356.714844 448.527344 354.910156 448.792969 C 353.109375 449.0625 351.296875 449.285156 349.484375 449.464844 C 347.667969 449.640625 345.851562 449.777344 344.027344 449.867188 C 342.207031 449.957031 340.382812 450 338.558594 450 L 111.441406 450 C 109.617188 450 107.792969 449.957031 105.972656 449.867188 C 104.148438 449.777344 102.332031 449.640625 100.515625 449.464844 C 98.703125 449.285156 96.890625 449.0625 95.089844 448.792969 C 93.285156 448.527344 91.488281 448.214844 89.699219 447.859375 C 87.910156 447.503906 86.132812 447.101562 84.363281 446.660156 C 82.59375 446.21875 80.835938 445.730469 79.089844 445.203125 C 77.34375 444.671875 75.613281 444.101562 73.898438 443.484375 C 72.179688 442.871094 70.480469 442.214844 68.792969 441.515625 C 67.109375 440.820312 65.441406 440.082031 63.792969 439.300781 C 62.144531 438.519531 60.515625 437.699219 58.90625 436.839844 C 57.300781 435.980469 55.710938 435.082031 54.148438 434.144531 C 52.582031 433.207031 51.042969 432.230469 49.527344 431.21875 C 48.011719 430.207031 46.519531 429.15625 45.054688 428.070312 C 43.589844 426.984375 42.152344 425.859375 40.742188 424.703125 C 39.332031 423.546875 37.953125 422.355469 36.601562 421.132812 C 35.25 419.90625 33.929688 418.648438 32.640625 417.359375 C 31.351562 416.070312 30.09375 414.75 28.867188 413.398438 C 27.644531 412.046875 26.453125 410.667969 25.296875 409.257812 C 24.136719 407.847656 23.015625 406.410156 21.929688 404.945312 C 20.84375 403.480469 19.792969 401.988281 18.78125 400.472656 C 17.769531 398.957031 16.792969 397.414062 15.855469 395.851562 C 14.917969 394.289062 14.019531 392.699219 13.160156 391.09375 C 12.300781 389.484375 11.480469 387.855469 10.699219 386.207031 C 9.917969 384.558594 9.179688 382.890625 8.484375 381.207031 C 7.785156 379.519531 7.128906 377.820312 6.515625 376.101562 C 5.898438 374.386719 5.328125 372.65625 4.796875 370.910156 C 4.269531 369.164062 3.78125 367.40625 3.339844 365.636719 C 2.898438 363.867188 2.496094 362.089844 2.140625 360.300781 C 1.785156 358.511719 1.472656 356.714844 1.207031 354.910156 C 0.9375 353.109375 0.714844 351.296875 0.535156 349.484375 C 0.359375 347.667969 0.222656 345.851562 0.132812 344.027344 C 0.0429688 342.207031 0 340.382812 0 338.558594 L 0 111.441406 C 0 109.617188 0.0429688 107.792969 0.132812 105.972656 C 0.222656 104.148438 0.359375 102.332031 0.535156 100.515625 C 0.714844 98.703125 0.9375 96.890625 1.207031 95.089844 C 1.472656 93.285156 1.785156 91.488281 2.140625 89.699219 C 2.496094 87.910156 2.898438 86.132812 3.339844 84.363281 C 3.78125 82.59375 4.269531 80.835938 4.796875 79.089844 C 5.328125 77.34375 5.898438 75.613281 6.515625 73.898438 C 7.128906 72.179688 7.785156 70.476562 8.484375 68.792969 C 9.179688 67.109375 9.917969 65.441406 10.699219 63.792969 C 11.480469 62.144531 12.300781 60.515625 13.160156 58.90625 C 14.019531 57.300781 14.917969 55.710938 15.855469 54.148438 C 16.792969 52.582031 17.769531 51.042969 18.78125 49.527344 C 19.792969 48.011719 20.84375 46.519531 21.929688 45.054688 C 23.015625 43.589844 24.136719 42.152344 25.296875 40.742188 C 26.453125 39.332031 27.644531 37.953125 28.867188 36.601562 C 30.09375 35.25 31.351562 33.929688 32.640625 32.640625 C 33.929688 31.351562 35.25 30.09375 36.601562 28.867188 C 37.953125 27.644531 39.332031 26.453125 40.742188 25.296875 C 42.152344 24.136719 43.589844 23.015625 45.054688 21.929688 C 46.519531 20.84375 48.011719 19.792969 49.527344 18.78125 C 51.042969 17.769531 52.582031 16.792969 54.148438 15.855469 C 55.710938 14.917969 57.300781 14.019531 58.90625 13.160156 C 60.515625 12.300781 62.144531 11.480469 63.792969 10.699219 C 65.441406 9.917969 67.109375 9.179688 68.792969 8.484375 C 70.480469 7.785156 72.179688 7.128906 73.898438 6.515625 C 75.613281 5.898438 77.34375 5.328125 79.089844 4.796875 C 80.835938 4.269531 82.59375 3.78125 84.363281 3.339844 C 86.132812 2.898438 87.910156 2.496094 89.699219 2.140625 C 91.488281 1.785156 93.285156 1.472656 95.089844 1.207031 C 96.890625 0.9375 98.703125 0.714844 100.515625 0.535156 C 102.332031 0.359375 104.148438 0.222656 105.972656 0.132812 C 107.792969 0.0429688 109.617188 0 111.441406 0 Z M 111.441406 0 " fill-opacity="1" fill-rule="nonzero"/><g clip-path="url(#9b5d87fdca)"><path fill="#ffffff" d="M 241.796875 366.46875 L 208.195312 366.46875 C 205.539062 366.46875 203.394531 364.316406 203.394531 361.667969 L 203.394531 188.84375 L 145.785156 188.84375 C 143.128906 188.84375 140.984375 186.691406 140.984375 184.042969 L 140.984375 160.039062 C 140.984375 157.386719 143.128906 155.238281 145.785156 155.238281 L 304.207031 155.238281 C 306.863281 155.238281 309.007812 157.386719 309.007812 160.039062 L 309.007812 184.042969 C 309.007812 186.691406 306.863281 188.84375 304.207031 188.84375 L 246.597656 188.84375 L 246.597656 361.667969 C 246.597656 364.316406 244.453125 366.46875 241.796875 366.46875 Z M 241.796875 366.46875 " fill-opacity="1" fill-rule="nonzero"/></g><g clip-path="url(#14a4e3bfc0)"><path fill="#ffffff" d="M 310.285156 247.453125 L 275.394531 247.453125 C 273.84375 247.453125 272.292969 248.230469 271.90625 249.78125 L 224.996094 363.371094 L 178.085938 249.78125 C 177.699219 248.230469 176.148438 247.453125 174.597656 247.453125 L 139.707031 247.453125 C 137.382812 247.453125 135.832031 249.003906 135.832031 251.332031 L 135.832031 414.15625 C 135.832031 416.480469 137.382812 418.03125 139.707031 418.03125 L 166.84375 418.03125 C 169.171875 418.03125 170.722656 416.480469 170.722656 414.15625 L 170.722656 309.484375 L 173.433594 309.484375 L 212.589844 404.074219 C 213.367188 405.625 214.527344 406.402344 216.078125 406.402344 L 234.300781 406.402344 C 235.851562 406.402344 237.402344 405.625 237.789062 404.074219 L 276.558594 309.484375 L 279.269531 309.484375 L 279.269531 414.15625 C 279.269531 416.480469 280.820312 418.03125 283.148438 418.03125 L 310.285156 418.03125 C 312.613281 418.03125 314.164062 416.480469 314.164062 414.15625 L 314.164062 251.332031 C 314.164062 249.003906 312.613281 247.453125 310.285156 247.453125 Z M 310.285156 247.453125 " fill-opacity="1" fill-rule="nonzero"/></g><g clip-path="url(#ae09bfd4f3)"><path fill="#ffffff" d="M 198.28125 142.734375 L 144.148438 88.605469 C 140.898438 85.351562 140.898438 80.078125 144.148438 76.824219 L 155.925781 65.046875 C 159.179688 61.796875 164.453125 61.796875 167.703125 65.046875 L 204.171875 101.515625 L 282.277344 23.40625 C 285.527344 20.15625 290.800781 20.15625 294.054688 23.40625 L 305.832031 35.1875 C 309.082031 38.4375 309.082031 43.710938 305.832031 46.964844 L 210.058594 142.734375 C 206.808594 145.988281 201.535156 145.988281 198.28125 142.734375 Z M 198.28125 142.734375 " fill-opacity="1" fill-rule="nonzero"/></g></svg>